<svg width="400" height="49" viewBox="0 0 400 49" fill="none" xmlns="http://www.w3.org/2000/svg">
<path d="M30.158 5.158C29.962 5.158 29.262 5.172 28.058 5.2C27.736 5.2 27.47 5.48 27.47 5.802V14.412C27.47 14.734 27.736 15 28.058 15.014C28.856 15.028 29.542 15.042 30.102 15.042C32.244 15.042 33.658 14.104 33.658 12.2C33.658 10.898 32.874 10.086 31.628 9.862C32.636 9.512 33.308 8.756 33.308 7.58C33.308 6.11 32.356 5.158 30.158 5.158ZM30.242 10.534C31.656 10.534 32.468 11.108 32.468 12.13C32.468 13.306 31.642 13.922 30.172 13.922C29.598 13.922 29.094 13.908 28.66 13.866V10.534H30.242ZM28.66 6.32C29.36 6.292 29.85 6.278 30.13 6.278C31.46 6.278 32.118 6.796 32.118 7.846C32.118 8.868 31.306 9.484 30.228 9.484H28.66V6.32ZM36.1666 14.202C36.7826 14.832 37.5946 15.14 38.5886 15.14C39.5826 15.14 40.3946 14.832 41.0246 14.202C41.6406 13.586 41.9486 12.802 41.9486 11.85C41.9486 10.898 41.6406 10.114 41.0246 9.484C40.3946 8.868 39.5826 8.56 38.5886 8.56C37.5946 8.56 36.7826 8.868 36.1666 9.484C35.5366 10.114 35.2286 10.898 35.2286 11.85C35.2286 12.802 35.5366 13.586 36.1666 14.202ZM36.4186 11.85C36.4186 10.52 37.3426 9.61 38.5886 9.61C39.8626 9.61 40.7586 10.548 40.7586 11.85C40.7586 13.18 39.8626 14.09 38.5886 14.09C37.3146 14.09 36.4186 13.152 36.4186 11.85ZM45.539 8.56C44.727 8.56 44.041 8.728 43.481 9.05C43.285 9.176 43.187 9.316 43.187 9.498C43.187 9.582 43.201 9.652 43.243 9.722C43.341 9.876 43.481 9.96 43.663 9.96C43.761 9.96 43.859 9.946 43.929 9.904C44.405 9.68 44.881 9.568 45.371 9.568C46.197 9.568 46.715 9.918 46.715 10.478C46.715 10.982 46.253 11.374 45.623 11.374H45.105C44.839 11.374 44.629 11.584 44.629 11.822C44.629 12.088 44.839 12.284 45.105 12.284H45.693C46.463 12.284 46.925 12.578 46.925 13.096C46.925 13.712 46.239 14.132 45.273 14.132C44.825 14.132 44.349 13.992 43.845 13.698C43.747 13.642 43.649 13.614 43.551 13.614C43.369 13.614 43.229 13.684 43.131 13.838C43.061 13.95 43.033 14.048 43.033 14.132C43.033 14.314 43.117 14.454 43.271 14.566C43.845 14.944 44.559 15.14 45.441 15.14C47.023 15.14 48.115 14.412 48.115 13.25C48.115 12.48 47.639 11.864 46.799 11.752C47.541 11.486 47.905 10.982 47.905 10.254C47.905 9.204 47.051 8.56 45.539 8.56ZM54.8244 10.268C54.8244 9.19 53.9144 8.644 52.1084 8.644C51.9544 8.644 51.3664 8.658 50.3584 8.686C50.0644 8.7 49.8264 8.952 49.8264 9.246V14.454C49.8264 14.748 50.0644 15 50.3584 15.014C51.4504 15.042 52.0384 15.056 52.1364 15.056C54.0684 15.056 55.0344 14.44 55.0344 13.222C55.0344 12.41 54.5444 11.906 53.5644 11.724C54.3064 11.598 54.8244 11.01 54.8244 10.268ZM52.2904 12.172C53.3264 12.172 53.8444 12.494 53.8444 13.138C53.8444 13.81 53.3124 14.146 52.2344 14.146C52.0524 14.146 51.6184 14.132 50.9464 14.104V12.172H52.2904ZM50.9464 9.596C51.5064 9.568 51.9264 9.554 52.1924 9.554C53.1584 9.554 53.6344 9.862 53.6344 10.492C53.6344 11.094 53.1304 11.472 52.3604 11.472H50.9464V9.596ZM57.8643 14.706C58.2983 15 58.9003 15.14 59.6423 15.14C60.6083 15.14 61.4063 14.818 62.0083 14.174C62.6103 13.53 62.9183 12.718 62.9183 11.752C62.9183 10.814 62.6523 10.044 62.1343 9.442C61.6023 8.854 60.8883 8.56 60.0063 8.56C59.1523 8.56 58.3123 8.924 57.8643 9.442V9.162C57.9203 8.476 56.6883 8.476 56.7443 9.162V17.268C56.6883 17.954 57.9203 17.954 57.8643 17.268V14.706ZM57.8643 10.478C58.3263 9.904 58.9423 9.61 59.6843 9.61C60.9583 9.61 61.7283 10.492 61.7283 11.794C61.7283 13.138 60.8743 14.09 59.5443 14.09C58.9143 14.09 58.3543 13.922 57.8643 13.6V10.478ZM64.0756 13.152C64.0756 14.342 64.8456 15.098 66.0076 15.098C66.8616 15.098 67.5336 14.79 68.0236 14.188V14.608C68.0236 14.874 68.2616 15.098 68.5556 15.098C68.8496 15.098 69.0876 14.874 69.0876 14.608V11.136C69.0876 9.414 68.4016 8.56 66.6656 8.56C66.1196 8.56 65.5316 8.686 64.9296 8.938C64.7476 9.008 64.6496 9.162 64.6496 9.386C64.6496 9.456 64.6636 9.512 64.6916 9.582C64.7756 9.764 64.9156 9.862 65.1256 9.862C65.1956 9.862 65.2656 9.848 65.3356 9.82C65.7696 9.652 66.1896 9.568 66.5956 9.568C67.7576 9.568 68.0236 10.212 68.0236 11.556C67.6456 11.29 67.1276 11.15 66.4556 11.15C65.0556 11.15 64.0756 11.906 64.0756 13.152ZM68.0236 13.278C67.5616 13.824 67.0296 14.09 66.3996 14.09C65.6856 14.09 65.2656 13.712 65.2656 13.096C65.2656 12.424 65.8676 12.06 66.6096 12.06C67.1556 12.06 67.6316 12.2 68.0236 12.48V13.278ZM79.9931 14.482C79.9931 14.188 79.7551 13.95 79.4611 13.95H78.9431V9.162C78.9991 8.476 77.7671 8.476 77.8231 9.162V13.95H75.5131V9.162C75.5691 8.476 74.3371 8.476 74.3931 9.162V13.95H72.0831V9.162C72.1391 8.476 70.9071 8.476 70.9631 9.162V14.468C70.9631 14.762 71.2011 15 71.4951 15H78.9431V16.008C78.9431 16.302 79.1811 16.54 79.4751 16.54C79.7551 16.54 79.9931 16.302 79.9931 16.008V14.482ZM80.769 13.152C80.769 14.342 81.539 15.098 82.701 15.098C83.555 15.098 84.227 14.79 84.717 14.188V14.608C84.717 14.874 84.955 15.098 85.249 15.098C85.543 15.098 85.781 14.874 85.781 14.608V11.136C85.781 9.414 85.095 8.56 83.359 8.56C82.813 8.56 82.225 8.686 81.623 8.938C81.441 9.008 81.343 9.162 81.343 9.386C81.343 9.456 81.357 9.512 81.385 9.582C81.469 9.764 81.609 9.862 81.819 9.862C81.889 9.862 81.959 9.848 82.029 9.82C82.463 9.652 82.883 9.568 83.289 9.568C84.451 9.568 84.717 10.212 84.717 11.556C84.339 11.29 83.821 11.15 83.149 11.15C81.749 11.15 80.769 11.906 80.769 13.152ZM84.717 13.278C84.255 13.824 83.723 14.09 83.093 14.09C82.379 14.09 81.959 13.712 81.959 13.096C81.959 12.424 82.561 12.06 83.303 12.06C83.849 12.06 84.325 12.2 84.717 12.48V13.278ZM88.4264 11.29C88.5524 10.296 89.3084 9.61 90.4284 9.61C91.5064 9.61 92.1924 10.24 92.2484 11.29H88.4264ZM93.4104 11.444C93.4104 10.59 93.1304 9.904 92.5704 9.358C92.0104 8.826 91.3104 8.56 90.4844 8.56C89.4764 8.56 88.6784 8.868 88.1044 9.484C87.5304 10.114 87.2364 10.898 87.2364 11.85C87.2364 12.844 87.5444 13.642 88.1604 14.244C88.7764 14.846 89.5884 15.14 90.6104 15.14C91.4364 15.14 92.1784 14.902 92.8364 14.44C92.9484 14.37 93.0044 14.244 93.0044 14.062C93.0044 13.964 92.9764 13.88 92.9204 13.81C92.8084 13.684 92.6824 13.628 92.5424 13.628C92.4444 13.628 92.3324 13.656 92.2344 13.712C91.8004 13.964 91.2824 14.09 90.6944 14.09C89.4484 14.09 88.5944 13.376 88.4964 12.2H92.9204C93.1444 12.2 93.3824 11.976 93.3964 11.752C93.4104 11.682 93.4104 11.584 93.4104 11.444ZM97.9799 12.774C98.2039 13.054 98.6239 13.054 98.8479 12.76L100.626 10.506V14.566C100.57 15.252 101.802 15.252 101.746 14.566V9.162C101.746 8.868 101.494 8.63 101.2 8.63C100.976 8.63 100.738 8.798 100.486 9.148L98.4559 11.822L96.3279 9.176C96.0059 8.77 95.8379 8.63 95.5579 8.63C95.2639 8.63 95.0119 8.868 95.0119 9.162V14.566C94.9559 15.252 96.1879 15.252 96.1319 14.566V10.506L97.9799 12.774ZM108.222 14.566C108.166 15.252 109.398 15.252 109.342 14.566V5.676C109.342 5.382 109.09 5.144 108.796 5.144C108.642 5.144 108.502 5.186 108.376 5.284L106.598 6.656C106.444 6.782 106.36 6.936 106.36 7.118C106.36 7.244 106.402 7.342 106.472 7.426C106.57 7.552 106.724 7.622 106.906 7.622C107.06 7.622 107.172 7.58 107.27 7.496L108.222 6.754V14.566ZM117.381 13.768C117.899 12.872 118.151 11.654 118.151 10.1C118.151 8.56 117.885 7.342 117.367 6.432C116.835 5.536 116.037 5.088 114.973 5.088C113.909 5.088 113.111 5.536 112.593 6.432C112.061 7.342 111.795 8.56 111.795 10.1C111.795 11.64 112.061 12.858 112.607 13.754C113.139 14.664 113.937 15.112 115.001 15.112C116.065 15.112 116.863 14.664 117.381 13.768ZM114.973 6.138C116.359 6.138 116.961 7.482 116.961 10.1C116.961 12.732 116.387 14.062 115.001 14.062C113.657 14.062 112.985 12.746 112.985 10.1C112.985 7.454 113.643 6.138 114.973 6.138ZM128.756 5.858C128.798 5.802 128.826 5.732 128.826 5.634C128.826 5.48 128.77 5.368 128.672 5.298C128.602 5.242 128.518 5.214 128.434 5.214C128.294 5.214 128.182 5.27 128.112 5.382L121.392 14.356C121.35 14.412 121.322 14.482 121.322 14.58C121.322 14.72 121.378 14.832 121.476 14.902C121.546 14.958 121.63 14.986 121.728 14.986C121.882 14.986 121.98 14.93 122.05 14.818L128.756 5.858ZM123.954 9.19C124.444 8.756 124.682 8.182 124.682 7.482C124.682 6.782 124.444 6.208 123.968 5.774C123.478 5.34 122.862 5.116 122.12 5.116C121.378 5.116 120.762 5.34 120.286 5.774C119.796 6.208 119.558 6.782 119.558 7.482C119.558 8.182 119.796 8.756 120.286 9.19C120.776 9.638 121.378 9.862 122.12 9.862C122.862 9.862 123.464 9.638 123.954 9.19ZM123.198 6.432C123.492 6.698 123.632 7.048 123.632 7.482C123.632 8.364 122.96 8.952 122.12 8.952C121.294 8.952 120.608 8.364 120.608 7.482C120.524 6.166 122.33 5.564 123.198 6.432ZM129.848 14.412C130.338 13.978 130.576 13.404 130.576 12.704C130.576 12.004 130.338 11.43 129.862 10.996C129.372 10.562 128.756 10.338 128.014 10.338C127.272 10.338 126.656 10.562 126.18 10.996C125.69 11.43 125.452 12.004 125.452 12.704C125.452 13.404 125.69 13.978 126.18 14.412C126.67 14.86 127.272 15.084 128.014 15.084C128.756 15.084 129.358 14.86 129.848 14.412ZM129.092 11.654C129.386 11.92 129.526 12.27 129.526 12.704C129.526 13.586 128.854 14.174 128.014 14.174C127.188 14.174 126.502 13.586 126.502 12.704C126.418 11.388 128.224 10.786 129.092 11.654ZM141.476 11.906C141.476 10.002 140.342 8.77 138.55 8.77C137.486 8.77 136.45 9.358 136.044 10.24C136.142 8.658 136.66 7.636 137.626 7.202C137.962 7.048 138.48 6.908 139.166 6.782C139.852 6.656 140.356 6.446 140.678 6.152C140.804 6.04 140.874 5.9 140.874 5.732C140.874 5.606 140.832 5.494 140.748 5.396C140.65 5.27 140.524 5.2 140.37 5.2C140.216 5.2 140.034 5.27 139.852 5.396C139.642 5.522 139.25 5.634 138.69 5.732C138.13 5.83 137.654 5.956 137.248 6.138C135.694 6.796 134.91 8.49 134.91 11.22C134.91 13.642 136.184 15.14 138.242 15.14C139.18 15.14 139.964 14.818 140.566 14.188C141.168 13.558 141.476 12.802 141.476 11.906ZM136.1 11.43C136.31 10.548 137.15 9.82 138.27 9.82C139.544 9.82 140.286 10.688 140.286 11.962C140.286 12.564 140.09 13.068 139.712 13.474C139.32 13.88 138.816 14.09 138.214 14.09C136.968 14.09 136.1 13.04 136.1 11.43ZM143.559 14.202C144.175 14.832 144.987 15.14 145.981 15.14C146.975 15.14 147.787 14.832 148.417 14.202C149.033 13.586 149.341 12.802 149.341 11.85C149.341 10.898 149.033 10.114 148.417 9.484C147.787 8.868 146.975 8.56 145.981 8.56C144.987 8.56 144.175 8.868 143.559 9.484C142.929 10.114 142.621 10.898 142.621 11.85C142.621 12.802 142.929 13.586 143.559 14.202ZM143.811 11.85C143.811 10.52 144.735 9.61 145.981 9.61C147.255 9.61 148.151 10.548 148.151 11.85C148.151 13.18 147.255 14.09 145.981 14.09C144.707 14.09 143.811 13.152 143.811 11.85ZM156.684 9.162C156.74 8.476 155.508 8.476 155.564 9.162V11.29H152.064V9.162C152.12 8.476 150.888 8.476 150.944 9.162V14.566C150.888 15.252 152.12 15.252 152.064 14.566V12.34H155.564V14.566C155.508 15.252 156.74 15.252 156.684 14.566V9.162ZM159.172 8.98C159.06 8.742 158.878 8.63 158.64 8.63C158.262 8.63 158.024 8.896 158.024 9.218C158.024 9.316 158.038 9.414 158.08 9.484L160.726 15L160.586 15.336C160.152 16.344 159.76 16.764 159.242 16.764C159.074 16.764 158.794 16.694 158.696 16.694C158.402 16.694 158.248 16.848 158.248 17.142C158.248 17.576 158.626 17.8 159.368 17.8C159.83 17.8 160.25 17.604 160.6 17.226C160.95 16.834 161.342 16.092 161.776 15L164.002 9.442C164.044 9.33 164.058 9.246 164.058 9.176C164.058 8.854 163.834 8.63 163.442 8.63C163.176 8.63 162.994 8.77 162.896 9.064L161.566 12.69C161.454 13.026 161.356 13.348 161.272 13.656C161.034 13.068 160.908 12.746 160.894 12.704L159.172 8.98ZM169.461 9.974C169.531 10.016 169.629 10.03 169.727 10.03C169.937 10.03 170.091 9.946 170.189 9.778C170.231 9.708 170.259 9.624 170.259 9.526C170.259 9.316 170.161 9.148 169.965 9.05C169.391 8.728 168.705 8.56 167.921 8.56C167.011 8.56 166.241 8.882 165.639 9.512C165.037 10.142 164.729 10.926 164.729 11.85C164.729 12.844 165.037 13.628 165.667 14.23C166.283 14.832 167.095 15.14 168.103 15.14C168.957 15.14 169.685 14.874 170.287 14.328C170.385 14.244 170.441 14.118 170.441 13.964C170.441 13.824 170.385 13.712 170.287 13.614C170.189 13.516 170.091 13.474 169.965 13.474C169.825 13.474 169.685 13.53 169.531 13.656C169.153 13.95 168.705 14.09 168.187 14.09C167.543 14.09 167.011 13.88 166.577 13.474C166.143 13.068 165.919 12.522 165.919 11.85C165.919 11.206 166.129 10.674 166.563 10.24C166.983 9.82 167.487 9.61 168.075 9.61C168.537 9.61 168.999 9.736 169.461 9.974ZM171.373 13.152C171.373 14.342 172.143 15.098 173.305 15.098C174.159 15.098 174.831 14.79 175.321 14.188V14.608C175.321 14.874 175.559 15.098 175.853 15.098C176.147 15.098 176.385 14.874 176.385 14.608V11.136C176.385 9.414 175.699 8.56 173.963 8.56C173.417 8.56 172.829 8.686 172.227 8.938C172.045 9.008 171.947 9.162 171.947 9.386C171.947 9.456 171.961 9.512 171.989 9.582C172.073 9.764 172.213 9.862 172.423 9.862C172.493 9.862 172.562 9.848 172.633 9.82C173.067 9.652 173.487 9.568 173.893 9.568C175.055 9.568 175.321 10.212 175.321 11.556C174.943 11.29 174.425 11.15 173.753 11.15C172.353 11.15 171.373 11.906 171.373 13.152ZM175.321 13.278C174.859 13.824 174.327 14.09 173.697 14.09C172.983 14.09 172.562 13.712 172.562 13.096C172.562 12.424 173.165 12.06 173.907 12.06C174.453 12.06 174.928 12.2 175.321 12.48V13.278ZM181.228 12.774C181.452 13.054 181.872 13.054 182.096 12.76L183.874 10.506V14.566C183.818 15.252 185.05 15.252 184.994 14.566V9.162C184.994 8.868 184.742 8.63 184.448 8.63C184.224 8.63 183.986 8.798 183.734 9.148L181.704 11.822L179.576 9.176C179.254 8.77 179.086 8.63 178.806 8.63C178.512 8.63 178.26 8.868 178.26 9.162V14.566C178.204 15.252 179.436 15.252 179.38 14.566V10.506L181.228 12.774ZM192.89 9.204C192.89 8.91 192.652 8.63 192.33 8.63C192.092 8.63 191.826 8.798 191.532 9.148L188.13 13.334V9.162C188.186 8.476 186.954 8.476 187.01 9.162V14.538C187.01 14.832 187.248 15.098 187.57 15.098C187.822 15.098 188.088 14.93 188.368 14.594L191.77 10.408V14.566C191.714 15.252 192.946 15.252 192.89 14.566V9.204Z" fill="#292929"/>
<path d="M32.384 34.32C32.678 34.32 32.93 34.054 32.93 33.76C32.93 33.466 32.678 33.2 32.384 33.2H28.058C27.736 33.2 27.47 33.466 27.47 33.788V42.51C27.47 42.832 27.736 43.098 28.072 43.098C28.394 43.098 28.66 42.832 28.66 42.51V34.32H32.384ZM31.7827 41.152C31.7827 42.342 32.5527 43.098 33.7147 43.098C34.5687 43.098 35.2407 42.79 35.7307 42.188V42.608C35.7307 42.874 35.9687 43.098 36.2627 43.098C36.5567 43.098 36.7947 42.874 36.7947 42.608V39.136C36.7947 37.414 36.1087 36.56 34.3727 36.56C33.8267 36.56 33.2387 36.686 32.6367 36.938C32.4547 37.008 32.3567 37.162 32.3567 37.386C32.3567 37.456 32.3707 37.512 32.3987 37.582C32.4827 37.764 32.6227 37.862 32.8327 37.862C32.9027 37.862 32.9727 37.848 33.0427 37.82C33.4767 37.652 33.8967 37.568 34.3027 37.568C35.4647 37.568 35.7307 38.212 35.7307 39.556C35.3527 39.29 34.8347 39.15 34.1627 39.15C32.7627 39.15 31.7827 39.906 31.7827 41.152ZM35.7307 41.278C35.2687 41.824 34.7367 42.09 34.1067 42.09C33.3927 42.09 32.9727 41.712 32.9727 41.096C32.9727 40.424 33.5747 40.06 34.3167 40.06C34.8627 40.06 35.3387 40.2 35.7307 40.48V41.278ZM39.7901 42.706C40.2241 43 40.8261 43.14 41.5681 43.14C42.5341 43.14 43.3321 42.818 43.9341 42.174C44.5361 41.53 44.8441 40.718 44.8441 39.752C44.8441 38.814 44.5781 38.044 44.0601 37.442C43.5281 36.854 42.8141 36.56 41.9321 36.56C41.0781 36.56 40.2381 36.924 39.7901 37.442V37.162C39.8461 36.476 38.6141 36.476 38.6701 37.162V45.268C38.6141 45.954 39.8461 45.954 39.7901 45.268V42.706ZM39.7901 38.478C40.2521 37.904 40.8681 37.61 41.6101 37.61C42.8841 37.61 43.6541 38.492 43.6541 39.794C43.6541 41.138 42.8001 42.09 41.4701 42.09C40.8401 42.09 40.2801 41.922 39.7901 41.6V38.478ZM46.0014 41.152C46.0014 42.342 46.7714 43.098 47.9334 43.098C48.7874 43.098 49.4594 42.79 49.9494 42.188V42.608C49.9494 42.874 50.1874 43.098 50.4814 43.098C50.7754 43.098 51.0134 42.874 51.0134 42.608V39.136C51.0134 37.414 50.3274 36.56 48.5914 36.56C48.0454 36.56 47.4574 36.686 46.8554 36.938C46.6734 37.008 46.5754 37.162 46.5754 37.386C46.5754 37.456 46.5894 37.512 46.6174 37.582C46.7014 37.764 46.8414 37.862 47.0514 37.862C47.1214 37.862 47.1914 37.848 47.2614 37.82C47.6954 37.652 48.1154 37.568 48.5214 37.568C49.6834 37.568 49.9494 38.212 49.9494 39.556C49.5714 39.29 49.0534 39.15 48.3814 39.15C46.9814 39.15 46.0014 39.906 46.0014 41.152ZM49.9494 41.278C49.4874 41.824 48.9554 42.09 48.3254 42.09C47.6114 42.09 47.1914 41.712 47.1914 41.096C47.1914 40.424 47.7934 40.06 48.5354 40.06C49.0814 40.06 49.5574 40.2 49.9494 40.48V41.278ZM58.6289 37.162C58.6849 36.476 57.4529 36.476 57.5089 37.162V39.29H54.0089V37.162C54.0649 36.476 52.8329 36.476 52.8889 37.162V42.566C52.8329 43.252 54.0649 43.252 54.0089 42.566V40.34H57.5089V42.566C57.4529 43.252 58.6849 43.252 58.6289 42.566V37.162ZM63.2728 37.82H65.0508C65.7368 37.876 65.7368 36.644 65.0508 36.7H60.3748C59.6888 36.644 59.6888 37.876 60.3748 37.82H62.1528V42.566C62.0968 43.252 63.3288 43.252 63.2728 42.566V37.82ZM72.6868 37.204C72.6868 36.91 72.4488 36.63 72.1268 36.63C71.8888 36.63 71.6228 36.798 71.3288 37.148L67.9268 41.334V37.162C67.9828 36.476 66.7508 36.476 66.8068 37.162V42.538C66.8068 42.832 67.0448 43.098 67.3668 43.098C67.6188 43.098 67.8848 42.93 68.1648 42.594L71.5668 38.408V42.566C71.5108 43.252 72.7428 43.252 72.6868 42.566V37.204ZM74.5412 42.202C74.4432 42.356 74.3872 42.482 74.3872 42.608C74.3872 42.888 74.6112 43.098 74.9472 43.098C75.1292 43.098 75.2832 43 75.4372 42.79L76.8232 40.9H78.0412V42.566C77.9852 43.252 79.2172 43.252 79.1612 42.566V37.232C79.1612 36.938 78.9232 36.7 78.6292 36.7H77.2012C75.2412 36.7 74.3872 37.582 74.3872 38.8C74.3872 39.766 75.0172 40.452 75.7452 40.62L74.5412 42.202ZM76.7532 39.85C76.1512 39.85 75.5772 39.444 75.5772 38.828C75.5772 38.198 76.0252 37.75 77.0192 37.75H78.0412V39.85H76.7532ZM88.3942 42.818C88.5482 43 88.7302 43.098 88.9402 43.098C89.2902 43.098 89.5002 42.846 89.5002 42.566C89.5002 42.412 89.4442 42.272 89.3322 42.146L87.0922 39.71L89.1222 37.498C89.3042 37.316 89.3182 36.994 89.1222 36.784C88.9262 36.574 88.5202 36.532 88.1842 36.924L86.0702 39.374C85.8882 39.584 85.8882 39.948 86.0702 40.186L88.3942 42.818ZM85.4542 37.162C85.5102 36.476 84.2782 36.476 84.3342 37.162V42.566C84.2782 43.252 85.5102 43.252 85.4542 42.566V37.162ZM90.6401 41.152C90.6401 42.342 91.4101 43.098 92.5721 43.098C93.4261 43.098 94.0981 42.79 94.5881 42.188V42.608C94.5881 42.874 94.8261 43.098 95.1201 43.098C95.4141 43.098 95.6521 42.874 95.6521 42.608V39.136C95.6521 37.414 94.9661 36.56 93.2301 36.56C92.6841 36.56 92.0961 36.686 91.4941 36.938C91.3121 37.008 91.2141 37.162 91.2141 37.386C91.2141 37.456 91.2281 37.512 91.2561 37.582C91.3401 37.764 91.4801 37.862 91.6901 37.862C91.7601 37.862 91.8301 37.848 91.9001 37.82C92.3341 37.652 92.7541 37.568 93.1601 37.568C94.3221 37.568 94.5881 38.212 94.5881 39.556C94.2101 39.29 93.6921 39.15 93.0201 39.15C91.6201 39.15 90.6401 39.906 90.6401 41.152ZM94.5881 41.278C94.1261 41.824 93.5941 42.09 92.9641 42.09C92.2501 42.09 91.8301 41.712 91.8301 41.096C91.8301 40.424 92.4321 40.06 93.1741 40.06C93.7201 40.06 94.1961 40.2 94.5881 40.48V41.278ZM101.14 39.57C100.762 39.836 100.286 39.962 99.6975 39.962C98.7875 39.962 98.3395 39.472 98.3395 38.478V37.162C98.3395 36.868 98.0875 36.63 97.7515 36.63C97.4015 36.63 97.1495 36.868 97.1495 37.162V38.604C97.1495 40.214 97.8915 41.012 99.3895 41.012C100.076 41.012 100.65 40.858 101.14 40.55V42.566C101.084 43.252 102.316 43.252 102.26 42.566V37.162C102.316 36.476 101.084 36.476 101.14 37.162V39.57ZM105.051 39.29C105.177 38.296 105.933 37.61 107.053 37.61C108.131 37.61 108.817 38.24 108.873 39.29H105.051ZM110.035 39.444C110.035 38.59 109.755 37.904 109.195 37.358C108.635 36.826 107.935 36.56 107.109 36.56C106.101 36.56 105.303 36.868 104.729 37.484C104.155 38.114 103.861 38.898 103.861 39.85C103.861 40.844 104.169 41.642 104.785 42.244C105.401 42.846 106.213 43.14 107.235 43.14C108.061 43.14 108.803 42.902 109.461 42.44C109.573 42.37 109.629 42.244 109.629 42.062C109.629 41.964 109.601 41.88 109.545 41.81C109.433 41.684 109.307 41.628 109.167 41.628C109.069 41.628 108.957 41.656 108.859 41.712C108.425 41.964 107.907 42.09 107.319 42.09C106.073 42.09 105.219 41.376 105.121 40.2H109.545C109.769 40.2 110.007 39.976 110.021 39.752C110.035 39.682 110.035 39.584 110.035 39.444ZM115.867 37.974C115.937 38.016 116.035 38.03 116.133 38.03C116.343 38.03 116.497 37.946 116.595 37.778C116.637 37.708 116.665 37.624 116.665 37.526C116.665 37.316 116.567 37.148 116.371 37.05C115.797 36.728 115.111 36.56 114.327 36.56C113.417 36.56 112.647 36.882 112.045 37.512C111.443 38.142 111.135 38.926 111.135 39.85C111.135 40.844 111.443 41.628 112.073 42.23C112.689 42.832 113.501 43.14 114.509 43.14C115.363 43.14 116.091 42.874 116.693 42.328C116.791 42.244 116.847 42.118 116.847 41.964C116.847 41.824 116.791 41.712 116.693 41.614C116.595 41.516 116.497 41.474 116.371 41.474C116.231 41.474 116.091 41.53 115.937 41.656C115.559 41.95 115.111 42.09 114.593 42.09C113.949 42.09 113.417 41.88 112.983 41.474C112.549 41.068 112.325 40.522 112.325 39.85C112.325 39.206 112.535 38.674 112.969 38.24C113.389 37.82 113.893 37.61 114.481 37.61C114.943 37.61 115.405 37.736 115.867 37.974ZM120.777 37.82H122.555C123.241 37.876 123.241 36.644 122.555 36.7H117.879C117.193 36.644 117.193 37.876 117.879 37.82H119.657V42.566C119.601 43.252 120.833 43.252 120.777 42.566V37.82ZM129.309 38.268C129.309 37.19 128.399 36.644 126.593 36.644C126.439 36.644 125.851 36.658 124.843 36.686C124.549 36.7 124.311 36.952 124.311 37.246V42.454C124.311 42.748 124.549 43 124.843 43.014C125.935 43.042 126.523 43.056 126.621 43.056C128.553 43.056 129.519 42.44 129.519 41.222C129.519 40.41 129.029 39.906 128.049 39.724C128.791 39.598 129.309 39.01 129.309 38.268ZM126.775 40.172C127.811 40.172 128.329 40.494 128.329 41.138C128.329 41.81 127.797 42.146 126.719 42.146C126.537 42.146 126.103 42.132 125.431 42.104V40.172H126.775ZM125.431 37.596C125.991 37.568 126.411 37.554 126.677 37.554C127.643 37.554 128.119 37.862 128.119 38.492C128.119 39.094 127.615 39.472 126.845 39.472H125.431V37.596ZM130.781 41.152C130.781 42.342 131.551 43.098 132.713 43.098C133.567 43.098 134.239 42.79 134.729 42.188V42.608C134.729 42.874 134.967 43.098 135.261 43.098C135.555 43.098 135.793 42.874 135.793 42.608V39.136C135.793 37.414 135.107 36.56 133.371 36.56C132.825 36.56 132.237 36.686 131.635 36.938C131.453 37.008 131.355 37.162 131.355 37.386C131.355 37.456 131.369 37.512 131.397 37.582C131.481 37.764 131.621 37.862 131.831 37.862C131.901 37.862 131.971 37.848 132.041 37.82C132.475 37.652 132.895 37.568 133.301 37.568C134.463 37.568 134.729 38.212 134.729 39.556C134.351 39.29 133.833 39.15 133.161 39.15C131.761 39.15 130.781 39.906 130.781 41.152ZM134.729 41.278C134.267 41.824 133.735 42.09 133.105 42.09C132.391 42.09 131.971 41.712 131.971 41.096C131.971 40.424 132.573 40.06 133.315 40.06C133.861 40.06 134.337 40.2 134.729 40.48V41.278Z" fill="#292929"/>
<path d="M240.434 5.676C240.434 5.802 240.462 5.914 240.532 6.012L244.48 12.536L244.312 12.9C243.99 13.558 243.598 13.894 243.108 13.894C242.968 13.894 242.828 13.866 242.688 13.81C242.632 13.782 242.562 13.768 242.464 13.768C242.254 13.768 242.1 13.866 242.002 14.062C241.96 14.174 241.932 14.258 241.932 14.328C241.932 14.608 242.156 14.818 242.38 14.888C242.604 14.958 242.856 15 243.122 15C244.172 15 244.872 14.314 245.558 12.76L248.638 5.9C248.68 5.83 248.694 5.732 248.694 5.634C248.694 5.354 248.484 5.13 248.134 5.13C247.896 5.13 247.714 5.284 247.574 5.592L245.054 11.346L241.61 5.564C241.428 5.27 241.232 5.13 240.994 5.13C240.644 5.13 240.434 5.382 240.434 5.676ZM253.71 15V16.008C253.71 16.302 253.948 16.54 254.242 16.54C254.522 16.54 254.76 16.302 254.76 16.008V14.482C254.76 14.188 254.522 13.95 254.228 13.95H253.71V9.232C253.71 8.938 253.472 8.7 253.178 8.7H249.944C249.65 8.7 249.398 8.938 249.384 9.232L249.314 10.366C249.202 12.004 248.796 13.39 248.348 13.95H248.096C247.802 13.95 247.564 14.188 247.564 14.482V16.008C247.564 16.302 247.802 16.54 248.096 16.54C248.376 16.54 248.614 16.302 248.614 16.008V15H253.71ZM249.538 13.95C249.874 13.502 250.266 12.27 250.392 10.8L250.462 9.75H252.59V13.95H249.538ZM256.428 14.202C257.044 14.832 257.856 15.14 258.85 15.14C259.844 15.14 260.656 14.832 261.286 14.202C261.902 13.586 262.21 12.802 262.21 11.85C262.21 10.898 261.902 10.114 261.286 9.484C260.656 8.868 259.844 8.56 258.85 8.56C257.856 8.56 257.044 8.868 256.428 9.484C255.798 10.114 255.49 10.898 255.49 11.85C255.49 12.802 255.798 13.586 256.428 14.202ZM256.68 11.85C256.68 10.52 257.604 9.61 258.85 9.61C260.124 9.61 261.02 10.548 261.02 11.85C261.02 13.18 260.124 14.09 258.85 14.09C257.576 14.09 256.68 13.152 256.68 11.85ZM269.931 11.906C269.931 10.002 268.797 8.77 267.005 8.77C265.941 8.77 264.905 9.358 264.499 10.24C264.597 8.658 265.115 7.636 266.081 7.202C266.417 7.048 266.935 6.908 267.621 6.782C268.307 6.656 268.811 6.446 269.133 6.152C269.259 6.04 269.329 5.9 269.329 5.732C269.329 5.606 269.287 5.494 269.203 5.396C269.105 5.27 268.979 5.2 268.825 5.2C268.671 5.2 268.489 5.27 268.307 5.396C268.097 5.522 267.705 5.634 267.145 5.732C266.585 5.83 266.109 5.956 265.703 6.138C264.149 6.796 263.365 8.49 263.365 11.22C263.365 13.642 264.639 15.14 266.697 15.14C267.635 15.14 268.419 14.818 269.021 14.188C269.623 13.558 269.931 12.802 269.931 11.906ZM264.555 11.43C264.765 10.548 265.605 9.82 266.725 9.82C267.999 9.82 268.741 10.688 268.741 11.962C268.741 12.564 268.545 13.068 268.167 13.474C267.775 13.88 267.271 14.09 266.669 14.09C265.423 14.09 264.555 13.04 264.555 11.43ZM277.236 9.162C277.292 8.476 276.06 8.476 276.116 9.162V11.29H272.616V9.162C272.672 8.476 271.44 8.476 271.496 9.162V14.566C271.44 15.252 272.672 15.252 272.616 14.566V12.34H276.116V14.566C276.06 15.252 277.292 15.252 277.236 14.566V9.162ZM280.368 9.162C280.424 8.476 279.192 8.476 279.248 9.162V14.468C279.248 14.762 279.486 15 279.78 15H281.278C283.112 15 283.896 14.034 283.896 12.76C283.896 11.486 283.196 10.59 281.404 10.59H280.368V9.162ZM286.22 9.162C286.276 8.476 285.044 8.476 285.1 9.162V14.566C285.044 15.252 286.276 15.252 286.22 14.566V9.162ZM280.368 11.64H281.194C282.202 11.64 282.706 12.032 282.706 12.802C282.706 13.572 282.258 13.95 281.18 13.95H280.368V11.64ZM289.001 11.29C289.127 10.296 289.883 9.61 291.003 9.61C292.081 9.61 292.767 10.24 292.823 11.29H289.001ZM293.985 11.444C293.985 10.59 293.705 9.904 293.145 9.358C292.585 8.826 291.885 8.56 291.059 8.56C290.051 8.56 289.253 8.868 288.679 9.484C288.105 10.114 287.811 10.898 287.811 11.85C287.811 12.844 288.119 13.642 288.735 14.244C289.351 14.846 290.163 15.14 291.185 15.14C292.011 15.14 292.753 14.902 293.411 14.44C293.523 14.37 293.579 14.244 293.579 14.062C293.579 13.964 293.551 13.88 293.495 13.81C293.383 13.684 293.257 13.628 293.117 13.628C293.019 13.628 292.907 13.656 292.809 13.712C292.375 13.964 291.857 14.09 291.269 14.09C290.023 14.09 289.169 13.376 289.071 12.2H293.495C293.719 12.2 293.957 11.976 293.971 11.752C293.985 11.682 293.985 11.584 293.985 11.444ZM303.043 9.974C303.113 10.016 303.211 10.03 303.309 10.03C303.519 10.03 303.673 9.946 303.771 9.778C303.813 9.708 303.841 9.624 303.841 9.526C303.841 9.316 303.743 9.148 303.547 9.05C302.973 8.728 302.287 8.56 301.503 8.56C300.593 8.56 299.823 8.882 299.221 9.512C298.619 10.142 298.311 10.926 298.311 11.85C298.311 12.844 298.619 13.628 299.249 14.23C299.865 14.832 300.677 15.14 301.685 15.14C302.539 15.14 303.267 14.874 303.869 14.328C303.967 14.244 304.023 14.118 304.023 13.964C304.023 13.824 303.967 13.712 303.869 13.614C303.771 13.516 303.673 13.474 303.547 13.474C303.407 13.474 303.267 13.53 303.113 13.656C302.735 13.95 302.287 14.09 301.769 14.09C301.125 14.09 300.593 13.88 300.159 13.474C299.725 13.068 299.501 12.522 299.501 11.85C299.501 11.206 299.711 10.674 300.145 10.24C300.565 9.82 301.069 9.61 301.657 9.61C302.119 9.61 302.581 9.736 303.043 9.974ZM311.073 9.232C311.073 8.938 310.835 8.7 310.541 8.7H305.935C305.641 8.7 305.403 8.938 305.403 9.232V14.566C305.347 15.252 306.579 15.252 306.523 14.566V9.75H309.953V14.566C309.897 15.252 311.129 15.252 311.073 14.566V9.232ZM313.604 14.202C314.22 14.832 315.032 15.14 316.026 15.14C317.02 15.14 317.832 14.832 318.462 14.202C319.078 13.586 319.386 12.802 319.386 11.85C319.386 10.898 319.078 10.114 318.462 9.484C317.832 8.868 317.02 8.56 316.026 8.56C315.032 8.56 314.22 8.868 313.604 9.484C312.974 10.114 312.666 10.898 312.666 11.85C312.666 12.802 312.974 13.586 313.604 14.202ZM313.856 11.85C313.856 10.52 314.78 9.61 316.026 9.61C317.3 9.61 318.196 10.548 318.196 11.85C318.196 13.18 317.3 14.09 316.026 14.09C314.752 14.09 313.856 13.152 313.856 11.85ZM325.3 9.974C325.37 10.016 325.468 10.03 325.566 10.03C325.776 10.03 325.93 9.946 326.028 9.778C326.07 9.708 326.098 9.624 326.098 9.526C326.098 9.316 326 9.148 325.804 9.05C325.23 8.728 324.544 8.56 323.76 8.56C322.85 8.56 322.08 8.882 321.478 9.512C320.876 10.142 320.568 10.926 320.568 11.85C320.568 12.844 320.876 13.628 321.506 14.23C322.122 14.832 322.934 15.14 323.942 15.14C324.796 15.14 325.524 14.874 326.126 14.328C326.224 14.244 326.28 14.118 326.28 13.964C326.28 13.824 326.224 13.712 326.126 13.614C326.028 13.516 325.93 13.474 325.804 13.474C325.664 13.474 325.524 13.53 325.37 13.656C324.992 13.95 324.544 14.09 324.026 14.09C323.382 14.09 322.85 13.88 322.416 13.474C321.982 13.068 321.758 12.522 321.758 11.85C321.758 11.206 321.968 10.674 322.402 10.24C322.822 9.82 323.326 9.61 323.914 9.61C324.376 9.61 324.838 9.736 325.3 9.974ZM327.837 14.202C328.453 14.832 329.265 15.14 330.259 15.14C331.253 15.14 332.065 14.832 332.695 14.202C333.311 13.586 333.619 12.802 333.619 11.85C333.619 10.898 333.311 10.114 332.695 9.484C332.065 8.868 331.253 8.56 330.259 8.56C329.265 8.56 328.453 8.868 327.837 9.484C327.207 10.114 326.899 10.898 326.899 11.85C326.899 12.802 327.207 13.586 327.837 14.202ZM328.089 11.85C328.089 10.52 329.013 9.61 330.259 9.61C331.533 9.61 332.429 10.548 332.429 11.85C332.429 13.18 331.533 14.09 330.259 14.09C328.985 14.09 328.089 13.152 328.089 11.85ZM341.339 11.906C341.339 10.002 340.205 8.77 338.413 8.77C337.349 8.77 336.313 9.358 335.907 10.24C336.005 8.658 336.523 7.636 337.489 7.202C337.825 7.048 338.343 6.908 339.029 6.782C339.715 6.656 340.219 6.446 340.541 6.152C340.667 6.04 340.737 5.9 340.737 5.732C340.737 5.606 340.695 5.494 340.611 5.396C340.513 5.27 340.387 5.2 340.233 5.2C340.079 5.2 339.897 5.27 339.715 5.396C339.505 5.522 339.113 5.634 338.553 5.732C337.993 5.83 337.517 5.956 337.111 6.138C335.557 6.796 334.773 8.49 334.773 11.22C334.773 13.642 336.047 15.14 338.105 15.14C339.043 15.14 339.827 14.818 340.429 14.188C341.031 13.558 341.339 12.802 341.339 11.906ZM335.963 11.43C336.173 10.548 337.013 9.82 338.133 9.82C339.407 9.82 340.149 10.688 340.149 11.962C340.149 12.564 339.953 13.068 339.575 13.474C339.183 13.88 338.679 14.09 338.077 14.09C336.831 14.09 335.963 13.04 335.963 11.43ZM344.024 9.162C344.08 8.476 342.848 8.476 342.904 9.162V14.468C342.904 14.762 343.142 15 343.436 15H344.934C346.768 15 347.552 14.034 347.552 12.76C347.552 11.486 346.852 10.59 345.06 10.59H344.024V9.162ZM349.876 9.162C349.932 8.476 348.7 8.476 348.756 9.162V14.566C348.7 15.252 349.932 15.252 349.876 14.566V9.162ZM344.024 11.64H344.85C345.858 11.64 346.362 12.032 346.362 12.802C346.362 13.572 345.914 13.95 344.836 13.95H344.024V11.64ZM355.549 14.202C356.165 14.832 356.977 15.14 357.971 15.14C358.965 15.14 359.777 14.832 360.407 14.202C361.023 13.586 361.331 12.802 361.331 11.85C361.331 10.898 361.023 10.114 360.407 9.484C359.777 8.868 358.965 8.56 357.971 8.56C356.977 8.56 356.165 8.868 355.549 9.484C354.919 10.114 354.611 10.898 354.611 11.85C354.611 12.802 354.919 13.586 355.549 14.202ZM355.801 11.85C355.801 10.52 356.725 9.61 357.971 9.61C359.245 9.61 360.141 10.548 360.141 11.85C360.141 13.18 359.245 14.09 357.971 14.09C356.697 14.09 355.801 13.152 355.801 11.85ZM368.604 9.232C368.604 8.938 368.366 8.7 368.072 8.7H363.466C363.172 8.7 362.934 8.938 362.934 9.232V14.566C362.878 15.252 364.11 15.252 364.054 14.566V9.75H367.484V14.566C367.428 15.252 368.66 15.252 368.604 14.566V9.232ZM375.951 9.232C375.951 8.938 375.713 8.7 375.419 8.7H372.101C371.807 8.7 371.555 8.938 371.541 9.232L371.457 10.66C371.387 11.794 371.261 12.592 371.079 13.082C370.897 13.572 370.645 13.88 370.323 14.006C370.029 14.132 369.875 14.314 369.875 14.58C369.875 14.902 370.099 15.098 370.435 15.098C371.485 15.098 372.367 13.81 372.549 10.884L372.619 9.82H374.831V14.566C374.775 15.252 376.007 15.252 375.951 14.566V9.232ZM377.525 13.152C377.525 14.342 378.295 15.098 379.457 15.098C380.311 15.098 380.983 14.79 381.473 14.188V14.608C381.473 14.874 381.711 15.098 382.005 15.098C382.299 15.098 382.537 14.874 382.537 14.608V11.136C382.537 9.414 381.851 8.56 380.115 8.56C379.569 8.56 378.981 8.686 378.379 8.938C378.197 9.008 378.099 9.162 378.099 9.386C378.099 9.456 378.113 9.512 378.141 9.582C378.225 9.764 378.365 9.862 378.575 9.862C378.645 9.862 378.715 9.848 378.785 9.82C379.219 9.652 379.639 9.568 380.045 9.568C381.207 9.568 381.473 10.212 381.473 11.556C381.095 11.29 380.577 11.15 379.905 11.15C378.505 11.15 377.525 11.906 377.525 13.152ZM381.473 13.278C381.011 13.824 380.479 14.09 379.849 14.09C379.135 14.09 378.715 13.712 378.715 13.096C378.715 12.424 379.317 12.06 380.059 12.06C380.605 12.06 381.081 12.2 381.473 12.48V13.278ZM387.044 9.82H388.822C389.508 9.876 389.508 8.644 388.822 8.7H384.146C383.46 8.644 383.46 9.876 384.146 9.82H385.924V14.566C385.868 15.252 387.1 15.252 387.044 14.566V9.82ZM391.698 9.162C391.754 8.476 390.522 8.476 390.578 9.162V14.468C390.578 14.762 390.816 15 391.11 15H392.608C394.442 15 395.226 14.034 395.226 12.76C395.226 11.486 394.526 10.59 392.734 10.59H391.698V9.162ZM397.55 9.162C397.606 8.476 396.374 8.476 396.43 9.162V14.566C396.374 15.252 397.606 15.252 397.55 14.566V9.162ZM391.698 11.64H392.524C393.532 11.64 394.036 12.032 394.036 12.802C394.036 13.572 393.588 13.95 392.51 13.95H391.698V11.64Z" fill="#292929"/>
<path d="M16.6666 9.16669V15.8334C16.6666 16.2754 16.491 16.6993 16.1784 17.0119C15.8659 17.3244 15.4419 17.5 14.9999 17.5H4.99992C4.55789 17.5 4.13397 17.3244 3.82141 17.0119C3.50885 16.6993 3.33325 16.2754 3.33325 15.8334V9.16669" fill="#FFF1DB"/>
<path d="M16.6666 9.16669V15.8334C16.6666 16.2754 16.491 16.6993 16.1784 17.0119C15.8659 17.3244 15.4419 17.5 14.9999 17.5H4.99992C4.55789 17.5 4.13397 17.3244 3.82141 17.0119C3.50885 16.6993 3.33325 16.2754 3.33325 15.8334V9.16669" stroke="#FD9339" stroke-linecap="round" stroke-linejoin="round"/>
<path d="M11.6667 9.16665H16.25C16.5815 9.16665 16.8995 9.03495 17.1339 8.80053C17.3683 8.56611 17.5 8.24817 17.5 7.91665V7.08331C17.5 6.75179 17.3683 6.43385 17.1339 6.19943C16.8995 5.96501 16.5815 5.83331 16.25 5.83331H3.75C3.41848 5.83331 3.10054 5.96501 2.86612 6.19943C2.6317 6.43385 2.5 6.75179 2.5 7.08331V7.91665C2.5 8.24817 2.6317 8.56611 2.86612 8.80053C3.10054 9.03495 3.41848 9.16665 3.75 9.16665H8.33333" stroke="#FD9339" stroke-linecap="round" stroke-linejoin="round"/>
<path d="M8.33341 2.5C8.77544 2.5 9.19936 2.67559 9.51193 2.98816C9.82449 3.30072 10.0001 3.72464 10.0001 4.16667V5.83333H8.33341C7.89139 5.83333 7.46746 5.65774 7.1549 5.34518C6.84234 5.03262 6.66675 4.60869 6.66675 4.16667C6.66675 3.72464 6.84234 3.30072 7.1549 2.98816C7.46746 2.67559 7.89139 2.5 8.33341 2.5Z" stroke="#FD9339" stroke-linecap="round" stroke-linejoin="round"/>
<path d="M11.6667 2.5C12.1087 2.5 12.5326 2.67559 12.8452 2.98816C13.1577 3.30072 13.3333 3.72464 13.3333 4.16667C13.3333 4.60869 13.1577 5.03262 12.8452 5.34518C12.5326 5.65774 12.1087 5.83333 11.6667 5.83333H10V4.16667C10 3.72464 10.1756 3.30072 10.4882 2.98816C10.8007 2.67559 11.2246 2.5 11.6667 2.5Z" stroke="#FD9339" stroke-linecap="round" stroke-linejoin="round"/>
<path d="M10.8333 5.83331H9.16659C8.70635 5.83331 8.33325 6.20641 8.33325 6.66665V16.6666C8.33325 17.1269 8.70635 17.5 9.16659 17.5H10.8333C11.2935 17.5 11.6666 17.1269 11.6666 16.6666V6.66665C11.6666 6.20641 11.2935 5.83331 10.8333 5.83331Z" fill="white" stroke="#FD9339" stroke-linecap="round" stroke-linejoin="round"/>
<path d="M218.632 8.13582L218.392 7.24665C218.152 6.35582 218.681 5.43998 219.572 5.20248L227.942 2.97248C228.825 2.73748 229.742 3.26665 229.98 4.14915L231.442 9.57332C231.682 10.4641 231.152 11.38 230.262 11.6175L228.5 12.0866" fill="#FFF1DB"/>
<path d="M218.632 8.13582L218.392 7.24665C218.152 6.35582 218.681 5.43998 219.572 5.20248L227.942 2.97248C228.825 2.73748 229.742 3.26665 229.98 4.14915L231.442 9.57332C231.682 10.4641 231.152 11.38 230.262 11.6175L228.5 12.0866" stroke="#FD9339" stroke-linecap="round" stroke-linejoin="round"/>
<rect x="216.5" y="8.33331" width="11.6667" height="3.33333" fill="white"/>
<path d="M218.167 17.0834H226.833C227.754 17.0834 228.5 16.3375 228.5 15.4167V9.80253C228.5 8.8817 227.754 8.13586 226.833 8.13586H218.167C217.246 8.13586 216.5 8.8817 216.5 9.80253V15.4167C216.5 16.3375 217.247 17.0834 218.167 17.0834Z" stroke="#FD9339" stroke-linecap="round" stroke-linejoin="round"/>
<path d="M216.5 11.535H228.5" stroke="#FD9339" stroke-linecap="round" stroke-linejoin="round"/>
<path d="M5.105 39.5L2.5 42.1667L4.58333 43.4167L5.83333 45.5L9.0825 42.0875" stroke="#FD9339" stroke-linecap="round" stroke-linejoin="round"/>
<path d="M10.9175 42.0875L14.1666 45.5L15.4166 43.4167L17.5 42.1667L14.895 39.5" stroke="#FD9339" stroke-linecap="round" stroke-linejoin="round"/>
<path d="M14.1249 32.2085C16.4029 34.4866 16.4029 38.1801 14.1249 40.4581C11.8468 42.7362 8.15335 42.7362 5.87529 40.4581C3.59723 38.1801 3.59723 34.4866 5.87529 32.2085C8.15335 29.9305 11.8468 29.9305 14.1249 32.2085Z" fill="#FFF1DB" stroke="#FD9339" stroke-linecap="round" stroke-linejoin="round"/>
<path d="M9.99918 38.4867L11.4967 39.2734C11.7883 39.4267 12.1292 39.1792 12.0733 38.8542L11.7875 37.1867L12.9992 36.0067C13.235 35.7767 13.105 35.3759 12.7792 35.3284L11.105 35.085L10.3567 33.5675C10.2108 33.2717 9.79001 33.2717 9.64418 33.5675L8.89584 35.085L7.22084 35.3292C6.89501 35.3767 6.76501 35.7775 7.00084 36.0075L8.21251 37.1875L7.92668 38.855C7.87084 39.18 8.21168 39.4275 8.50334 39.2742L10.0008 38.4875H9.99918V38.4867Z" fill="white" stroke="#FD9339" stroke-linecap="round" stroke-linejoin="round"/>
</svg>
